<svg width="19" height="16" viewBox="0 0 19 16" fill="none" xmlns="http://www.w3.org/2000/svg">
<path fill-rule="evenodd" clip-rule="evenodd" d="M9.5 0.999996C9.03217 0.999996 8.56891 1.07759 8.13669 1.22836C7.70447 1.37912 7.31174 1.6001 6.98093 1.87868C6.65012 2.15725 6.38771 2.48797 6.20868 2.85195C6.02965 3.21592 5.9375 3.60603 5.9375 4C5.9375 4.39396 6.02965 4.78407 6.20868 5.14805C6.38771 5.51202 6.65012 5.84274 6.98093 6.12132C7.31174 6.39989 7.70447 6.62087 8.13669 6.77163C8.56891 6.9224 9.03217 7 9.5 7C10.4448 7 11.351 6.68393 12.0191 6.12132C12.6872 5.55871 13.0625 4.79564 13.0625 4C13.0625 3.20435 12.6872 2.44128 12.0191 1.87868C11.351 1.31607 10.4448 0.999996 9.5 0.999996ZM4.75 4C4.75009 3.23022 5.01393 2.47682 5.50987 1.83019C6.00582 1.18356 6.7128 0.671167 7.54597 0.354502C8.37915 0.0378371 9.30314 -0.0696522 10.2071 0.0449322C11.111 0.159517 11.9564 0.491307 12.642 1.00049C13.3275 1.50968 13.8241 2.17463 14.072 2.91555C14.3199 3.65647 14.3087 4.4419 14.0396 5.17758C13.7706 5.91326 13.2552 6.56795 12.5553 7.06309C11.8554 7.55822 11.0007 7.87277 10.0938 7.969V13.5C10.0938 13.6326 10.0312 13.7598 9.91985 13.8535C9.8085 13.9473 9.65747 14 9.5 14C9.34253 14 9.1915 13.9473 9.08016 13.8535C8.96881 13.7598 8.90625 13.6326 8.90625 13.5V7.97C7.7579 7.84816 6.70188 7.37743 5.93657 6.64623C5.17126 5.91503 4.74931 4.97468 4.75 4ZM7.71044 12.574C7.73619 12.7047 7.69925 12.8387 7.60773 12.9466C7.51621 13.0544 7.37761 13.1272 7.22237 13.149C6.37687 13.267 5.70237 13.444 5.25706 13.642C5.09348 13.7082 4.94481 13.7979 4.81769 13.907C4.78895 13.9334 4.76603 13.9638 4.75 13.997V14L4.75237 14.008C4.75705 14.0196 4.76343 14.0307 4.77138 14.041C4.81824 14.0989 4.87647 14.1496 4.94356 14.191C5.1395 14.321 5.46012 14.461 5.909 14.586C6.80081 14.836 8.07025 15 9.5 15C10.9297 15 12.1992 14.837 13.091 14.586C13.5399 14.46 13.8605 14.321 14.0564 14.191C14.1239 14.1496 14.1826 14.0989 14.2298 14.041C14.2373 14.0307 14.2433 14.0196 14.2476 14.008L14.25 14V13.996C14.234 13.9628 14.2111 13.9324 14.1823 13.906C14.0551 13.7972 13.9064 13.7079 13.7429 13.642C13.2964 13.444 12.6231 13.267 11.7776 13.149C11.6989 13.14 11.6231 13.1178 11.5547 13.0837C11.4863 13.0496 11.4268 13.0042 11.3796 12.9504C11.3324 12.8965 11.2985 12.8352 11.28 12.7701C11.2614 12.7051 11.2586 12.6375 11.2716 12.5715C11.2847 12.5055 11.3133 12.4423 11.3559 12.3858C11.3985 12.3293 11.4541 12.2805 11.5194 12.2424C11.5847 12.2043 11.6585 12.1777 11.7363 12.164C11.8141 12.1504 11.8944 12.15 11.9724 12.163C12.8867 12.29 13.6966 12.491 14.2963 12.757C14.8437 13 15.4375 13.4 15.4375 14C15.4375 14.426 15.1288 14.752 14.7915 14.977C14.4471 15.205 13.984 15.39 13.4663 15.535C12.4236 15.828 11.0212 16 9.5 16C7.97881 16 6.57637 15.828 5.53375 15.535C5.016 15.39 4.55287 15.205 4.2085 14.977C3.87125 14.752 3.5625 14.426 3.5625 14C3.5625 13.401 4.15625 13 4.70369 12.757C5.30338 12.491 6.11325 12.29 7.02763 12.163C7.18288 12.1413 7.34201 12.1724 7.47005 12.2495C7.59808 12.3266 7.68455 12.4433 7.71044 12.574Z" fill="white"/>
</svg>
