<svg width="31" height="32" viewBox="0 0 31 32" fill="none" xmlns="http://www.w3.org/2000/svg">
<path d="M15.56 31.2C13.88 31.2 12.6 29.88 12.6 28.24C12.6 27.8 12.64 27.48 12.68 27.28C11.2 27.08 10.12 25.92 10.12 24.4C10.12 22.8 11.36 21.44 13.08 21.44C13.76 21.44 14.4 21.64 14.92 22.08L14.76 16.48L9.24 16.32C9.68 16.84 9.88 17.48 9.88 18.16C9.88 19.8 8.64 21.12 6.92 21.12C5.48 21.12 4.16 20.12 3.96 18.56C3.64 18.68 3.32 18.72 3 18.72C1.36 18.72 0.0400001 17.4 0.0400001 15.76C0.0400001 14.08 1.36 12.8 3 12.8C3.24 12.8 3.6 12.88 3.96 12.96C4.2 11.4 5.52 10.32 6.92 10.32C8.56 10.32 9.88 11.64 9.88 13.28C9.88 13.96 9.68 14.6 9.24 15.12L14.76 14.96L14.92 9.44C14.36 9.84 13.76 10.08 13.08 10.08C11.44 10.08 10.12 8.76 10.12 7.12C10.12 5.68 11.12 4.36 12.68 4.16C12.64 3.96 12.6 3.64 12.6 3.2C12.6 1.56 13.84 0.239998 15.56 0.239998C17.2 0.239998 18.52 1.56 18.52 3.2C18.52 3.52 18.48 3.84 18.36 4.16C19.92 4.4 20.92 5.68 20.92 7.12C20.92 8.8 19.6 10.08 17.96 10.08C17.28 10.08 16.68 9.84 16.12 9.44L16.28 14.96L21.88 15.2C21.4 14.6 21.16 13.96 21.16 13.28C21.16 11.64 22.48 10.32 24.12 10.32C25.52 10.32 26.84 11.4 27.08 12.96C27.44 12.88 27.8 12.8 28.04 12.8C29.68 12.8 31 14.04 31 15.76C31 17.4 29.68 18.72 28.04 18.72C27.72 18.72 27.4 18.68 27.08 18.56C26.88 20.08 25.6 21.12 24.12 21.12C22.44 21.12 21.16 19.8 21.16 18.16C21.16 17.52 21.4 16.92 21.88 16.32L16.28 16.48L16.12 22.08C16.64 21.64 17.28 21.44 17.96 21.44C19.6 21.44 20.92 22.76 20.92 24.4C20.92 25.92 19.84 27.08 18.36 27.28C18.48 27.6 18.52 27.92 18.52 28.24C18.52 29.88 17.2 31.2 15.56 31.2Z" fill="white"/>
</svg>
